<svg version="1.1" id="Layer_1" xmlns="http://www.w3.org/2000/svg" xmlns:xlink="http://www.w3.org/1999/xlink" x="0px" y="0px"
	 width="100%" viewBox="200 200 624 624" enable-background="new 0 0 1024 1024" xml:space="preserve">
<path fill="#FFFFFF" opacity="1.000000" stroke="none" 
	d="
M397.552582,686.297485 
	C394.164581,690.773010 389.996155,692.383606 384.746124,692.370667 
	C343.080444,692.268311 301.414337,692.328125 259.748383,692.298462 
	C249.601410,692.291199 244.689041,687.354980 244.688919,677.306213 
	C244.688126,605.807373 244.231216,534.304321 244.882797,462.811371 
	C245.263321,421.061279 253.217697,380.615631 274.043427,343.823273 
	C306.864502,285.838959 355.340759,248.505753 421.433472,236.089279 
	C448.827026,230.942993 476.750763,231.079239 504.546967,231.792923 
	C533.008362,232.523697 561.382568,234.761856 588.636597,243.758667 
	C646.909424,262.995056 689.597168,299.357941 711.773987,357.656494 
	C718.248169,374.675812 721.666504,392.459351 723.337769,410.570129 
	C725.470215,433.679565 724.036072,456.845581 724.277100,479.983704 
	C724.534058,504.647247 724.367371,529.315735 724.289795,553.981750 
	C724.275940,558.379944 725.048950,562.604492 726.349548,566.728638 
	C728.648743,574.019958 733.404785,578.730774 741.215820,579.713135 
	C749.189758,580.716003 755.655090,578.136169 760.064392,571.181702 
	C763.726746,565.405396 765.190063,558.936096 765.620056,552.235718 
	C765.886475,548.084900 765.603943,543.901794 765.755249,539.739990 
	C766.007446,532.801880 769.221313,529.083374 775.971069,527.535095 
	C780.923950,526.399170 785.857300,526.383545 790.816895,527.483826 
	C797.219116,528.904175 800.976990,532.681519 801.208984,539.059692 
	C801.880615,557.526489 799.110046,575.163269 788.593201,591.017212 
	C766.724792,623.983643 717.814453,623.286621 697.042053,589.606140 
	C690.142944,578.419861 686.689941,566.270020 686.693909,553.120728 
	C686.706482,511.288086 686.975464,469.453003 686.601868,427.623688 
	C686.338562,398.143768 679.703369,370.177521 663.382935,345.150360 
	C642.658142,313.368927 613.755249,292.238678 577.942139,280.218384 
	C555.115723,272.556915 531.594971,270.079803 507.658722,270.294891 
	C492.660156,270.429688 477.652893,270.043060 462.661041,270.389099 
	C426.690491,271.219330 392.828064,279.238190 362.800171,300.218872 
	C324.294373,327.123138 300.527649,363.937744 289.507324,409.205200 
	C284.580658,429.442108 282.178131,450.056519 282.197693,470.946564 
	C282.252960,529.944763 282.150482,588.943176 282.169678,647.941467 
	C282.173004,658.191650 283.828735,659.689758 294.158081,659.694519 
	C313.491089,659.703552 332.828888,659.448242 352.154999,659.814453 
	C361.280884,659.987366 364.052704,657.179688 364.645477,647.195129 
	C365.088593,639.731628 364.165680,632.254395 365.479462,624.775635 
	C370.843811,594.238525 393.908722,570.624084 424.228424,564.916077 
	C457.111389,558.725525 490.408264,575.576477 504.551422,605.610291 
	C509.241852,615.570740 510.650299,626.276428 511.269470,637.101318 
	C511.545074,641.919250 511.234558,646.767700 511.363098,651.597778 
	C511.500732,656.769592 513.950500,659.582947 518.943542,659.618835 
	C537.775391,659.754456 556.609253,659.745544 575.441223,659.620972 
	C580.137024,659.589905 582.676453,656.737183 582.682190,651.929565 
	C582.721130,619.596802 582.678955,587.264038 582.724121,554.931335 
	C582.727783,552.333374 581.855896,550.478210 579.665527,549.096008 
	C565.813232,540.354736 553.621582,529.421448 540.732422,519.414917 
	C528.285583,509.751709 514.600586,504.804840 498.653442,505.189819 
	C478.165680,505.684387 457.644470,504.853210 437.160034,505.412506 
	C397.930878,506.483643 369.806488,473.639832 367.435730,445.750977 
	C367.154846,442.446655 366.631592,439.152771 366.714996,435.829071 
	C367.203613,416.360596 365.386536,396.836212 367.663544,377.420990 
	C370.996429,349.002960 393.108521,325.590210 421.816681,320.851898 
	C437.768311,318.219055 454.035492,319.167480 470.171753,319.152740 
	C487.486359,319.136932 504.800995,319.529175 522.116150,319.680176 
	C553.671570,319.955383 580.486084,342.482086 586.278198,373.578613 
	C587.043701,377.688202 587.376465,381.793518 587.367920,385.975800 
	C587.311462,413.475220 587.572266,440.977264 587.280823,468.473724 
	C586.950378,499.648773 600.500305,522.057068 628.444458,535.810791 
	C630.685120,536.913635 632.950562,537.981812 635.112915,539.225281 
	C641.635132,542.976196 644.008179,548.566650 642.176819,555.613037 
	C640.478638,562.146912 636.046387,565.239868 628.370300,565.315857 
	C617.182922,565.426636 618.046692,563.556702 618.068542,575.782043 
	C618.128235,609.114441 618.180664,642.446777 618.224121,675.779175 
	C618.239136,687.298401 613.305786,692.305115 601.921692,692.308777 
	C564.922302,692.320557 527.922913,692.326660 490.923523,692.311096 
	C479.646515,692.306335 474.788727,687.495544 474.738953,676.249023 
	C474.681396,663.249695 474.842499,650.248291 474.674896,637.250793 
	C474.404663,616.293579 458.172058,599.876709 437.685181,599.620911 
	C417.528107,599.369263 400.537628,616.464600 400.286102,637.421387 
	C400.136108,649.919373 400.192474,662.420410 400.230774,674.919800 
	C400.242737,678.817810 399.651093,682.526855 397.552582,686.297485 
z"/>
<path fill="#FFFFFF" opacity="1.000000" stroke="none" 
	d="
M615.836060,424.301636 
	C618.421387,416.378296 624.055481,412.543976 631.556763,411.878082 
	C638.345154,411.275513 643.848206,414.300903 647.647400,420.075378 
	C651.908813,426.552399 651.138123,436.198090 645.954102,441.905243 
	C640.890747,447.479584 631.755066,449.158203 624.784851,445.794922 
	C617.694397,442.373627 613.924011,434.659241 615.431274,426.666412 
	C615.554626,426.012054 615.647522,425.352020 615.836060,424.301636 
z"/>
</svg>
